<?xml version="1.0" encoding="utf-8"?>
<!-- Generator: Adobe Illustrator 21.1.0, SVG Export Plug-In . SVG Version: 6.00 Build 0)  -->
<svg version="1.1" id="Layer_1" xmlns="http://www.w3.org/2000/svg" xmlns:xlink="http://www.w3.org/1999/xlink" x="0px" y="0px"
	 viewBox="0 0 258.5 217.8" style="enable-background:new 0 0 258.5 217.8;" xml:space="preserve">
<style type="text/css">
	.st0{fill:#0071CE;}
	.st1{fill:#EF6F34;}
	.st2{fill:#FFFFFF;}
</style>
<g>
	<path class="st0" d="M98.3,13.3c3.2-0.9,5.1-4.1,4.3-7.4c-0.8-3.2-4.1-5.1-7.3-4.3C92,2.4,90.1,5.7,91,9S95.1,14.1,98.3,13.3z"/>
	<path class="st0" d="M48.5,38.2c2.3-1.6,2.8-4.7,1.3-6.9c-1.5-2.3-4.6-2.9-6.9-1.3c-2.3,1.6-2.8,4.7-1.3,6.9
		C43.1,39.2,46.2,39.8,48.5,38.2z"/>
	<path class="st0" d="M160.4,13.3c3.2,0.8,6.4-1.1,7.3-4.3c0.8-3.2-1.1-6.5-4.3-7.4c-3.2-0.8-6.4,1.1-7.3,4.3
		C155.3,9.1,157.2,12.4,160.4,13.3z"/>
	<path class="st0" d="M13,70.7c1.6,1.3,4,1,5.2-0.7c1.3-1.6,1-4-0.6-5.3c-1.6-1.3-4-1-5.2,0.7C11,67,11.3,69.4,13,70.7z"/>
	<path class="st0" d="M245.7,70.7c1.6-1.3,1.9-3.7,0.6-5.3c-1.3-1.6-3.6-1.9-5.2-0.7c-1.6,1.3-1.9,3.7-0.6,5.3
		C241.7,71.7,244.1,71.9,245.7,70.7z"/>
	<path class="st0" d="M254.5,118.2c0,0,0.4-6.8,0-10.7c0,0-0.3-2.8-1.1-1c-0.9,1.7-2,3-2.9,4.1c-0.9,1-1.9,2.2-2.3,6.5
		c-0.4,4-0.3,7.8-2.9,8.3c0.4-2.6,0.6-5.1,0.6-7.7c0-0.2-0.1-4.4-0.2-7.1c3.4-1.9,4.8-6.1,3.1-9.7c0,0-1.9-4.7-3.5-7.1
		c0,0-0.6-1-0.9-0.8c-0.3-0.1-0.9,0.9-0.9,0.9c-1.3,2.6-2.9,7.4-2.9,7.4c-1.3,3.3,0,6.9,2.8,8.8c0.1,2.6,0.2,7.3,0.2,7.5
		c0,2.5-0.2,4.9-0.6,7.3c-1.5-1.3-1.4-4.5-1.8-7.8c-0.4-4.3-1.4-5.4-2.3-6.5c-0.9-1-2-2.3-2.9-4.1c-0.9-1.7-1.1,1-1.1,1
		c-0.4,3.9,0,10.7,0,10.7c0,4.7,3.2,8.7,7.6,9.6c-1.2,6.4-3.5,12.6-6.8,18.5c-1.7-1.6-0.2-4.9,1-8.5c1.4-4.1,0.9-5.6,0.5-6.8
		c-0.4-1.3-0.9-3-1-4.9c-0.1-1.9-1.5,0.5-1.5,0.5c-2,3.4-4.4,9.8-4.4,9.8c-2.1,4.6-0.3,9.9,3.8,12.5c-3.1,5.1-7.1,10-11.7,14.5
		c-1.5-2,1-4.8,3.2-8.1c2.4-3.5,2.4-5.1,2.4-6.4c0-1.3,0-3.1,0.4-5c0.5-1.9-1.5,0-1.5,0c-2.8,2.7-6.9,8.2-6.9,8.2
		c-3.3,3.9-3.1,9.6,0.3,13.2c-3.8,3.5-8,6.7-12.6,9.8c-1.1,0.7-2.2,1.4-3.3,2.1c-0.7-2.2,2.2-4.3,5-6.9c3.1-2.9,3.5-4.4,3.8-5.7
		c0.3-1.3,0.6-3,1.5-4.8c0.9-1.7-1.5-0.3-1.5-0.3c-3.4,2-8.5,6.4-8.5,6.4c-4,3-5.1,8.4-2.7,12.7c-5.2,2.9-11.1,5.6-17.4,7.9
		c-0.1-2.3,3.2-3.7,6.4-5.6c3.7-2.1,4.3-3.5,4.9-4.7c0.6-1.2,1.3-2.8,2.5-4.3c1.2-1.5-1.4-0.6-1.4-0.6c-3.7,1.2-9.7,4.4-9.7,4.4
		c-4.5,2-6.8,7.2-5.4,11.8c-5.7,1.9-11.7,3.7-18.3,5.2c0-2.5,3.5-3.4,7.1-4.8c4-1.6,4.8-2.9,5.5-4c0.7-1.1,1.7-2.6,3.1-3.9
		c1.4-1.3-1.3-0.8-1.3-0.8c-3.9,0.6-10.2,2.9-10.2,2.9c-4.9,1.4-7.9,6.3-7,11.3c-3.7,0.8-7.5,1.6-11.5,2.2c-2.8,0.5-5.3,1-7.7,1.6
		c0.2-2.4,3.8-3.1,7.4-4.2c4.1-1.3,5-2.5,5.8-3.6c0.8-1.1,1.9-2.5,3.4-3.7c1.5-1.2-1.2-0.9-1.2-0.9c-3.9,0.4-10.4,2.1-10.4,2.1
		c-5.1,1-8.4,5.8-7.7,10.9c-3.9,1.1-7.1,2.3-9.9,3.6c-2.8-1.3-6-2.5-9.9-3.6c0.7-5.1-2.7-9.9-7.7-10.9c0,0-6.5-1.8-10.4-2.1
		c0,0-2.7-0.3-1.2,0.9c1.5,1.2,2.6,2.6,3.4,3.7c0.8,1.1,1.7,2.3,5.8,3.6c3.7,1.2,7.2,1.8,7.5,4.2c-2.3-0.6-4.9-1.1-7.7-1.6
		c-4-0.7-7.8-1.4-11.5-2.2c0.9-5-2.1-9.9-7-11.3c0,0-6.4-2.3-10.2-2.9c0,0-2.7-0.5-1.3,0.8c1.4,1.3,2.4,2.8,3.1,3.9
		c0.7,1.1,1.6,2.4,5.5,4c3.6,1.4,7.2,2.4,7.1,4.8c-6.6-1.5-12.7-3.3-18.3-5.2c1.4-4.7-0.8-9.8-5.4-11.8c0,0-6-3.2-9.7-4.4
		c0,0-2.6-0.9-1.4,0.6c1.2,1.5,1.9,3.1,2.5,4.3c0.6,1.2,1.2,2.6,4.9,4.7c3.2,1.9,6.5,3.3,6.4,5.6c-6.4-2.3-12.2-5-17.5-7.9
		c2.3-4.3,1.3-9.7-2.7-12.7c0,0-5.2-4.4-8.5-6.4c0,0-2.4-1.4-1.5,0.3c0.9,1.7,1.2,3.5,1.5,4.8c0.3,1.3,0.6,2.8,3.8,5.7
		c2.8,2.6,5.7,4.7,5,6.9c-1.1-0.7-2.2-1.4-3.3-2.1c-4.6-3-8.8-6.3-12.6-9.8c3.4-3.6,3.6-9.3,0.3-13.2c0,0-4.1-5.5-6.9-8.2
		c0,0-2-1.9-1.5,0c0.5,1.9,0.4,3.6,0.4,5c0,1.3,0,2.9,2.4,6.4c2.2,3.2,4.7,6,3.2,8.1c-4.6-4.6-8.6-9.4-11.7-14.5
		c4.2-2.6,5.9-7.9,3.8-12.5c0,0-2.4-6.4-4.4-9.8c0,0-1.4-2.4-1.5-0.5c-0.1,2-0.6,3.6-1,4.9c-0.4,1.3-0.8,2.8,0.5,6.8
		c1.2,3.6,2.8,6.9,1,8.5c-3.3-5.9-5.6-12.1-6.8-18.5c4.4-1,7.6-4.9,7.6-9.6c0,0,0.4-6.8,0-10.7c0,0-0.3-2.8-1.2-1
		c-0.8,1.7-2,3.1-2.9,4.1c-0.9,1-1.9,2.2-2.3,6.5c-0.3,3.3-0.3,6.6-1.8,7.8c-0.3-2.4-0.5-4.9-0.6-7.3c0-0.2,0.1-4.7,0.2-7.3
		c3-1.8,4.4-5.6,3.1-8.9c0,0-1.5-4.8-2.9-7.4c0,0-0.5-1-0.9-0.9c-0.3-0.1-0.9,0.8-0.9,0.8c-1.6,2.5-3.5,7.1-3.5,7.1
		c-1.7,3.4-0.4,7.6,2.8,9.5c-0.1,2.7-0.2,7-0.2,7.2c0,2.6,0.2,5.2,0.6,7.7c-2.5-0.5-2.4-4.3-2.8-8.3c-0.4-4.3-1.5-5.4-2.3-6.5
		c-0.9-1-2-2.3-2.9-4.1c-0.9-1.7-1.1,1-1.1,1c-0.4,3.9,0,10.7,0,10.7c0,5.4,4.3,9.7,9.6,9.8c1.2,6.6,3.6,13,6.9,19
		c-2-0.3-3.3-3.4-5.1-6.4c-2.1-3.7-3.5-4.4-4.7-4.9c-1.2-0.6-2.8-1.3-4.3-2.5C5.1,132,6,134.6,6,134.6c1.2,3.8,4.4,9.8,4.4,9.8
		c2.1,4.6,7.2,6.8,11.9,5.3c3.2,5.2,7.1,10.1,11.7,14.8c-1.9,0-4-2.4-6.4-4.7c-3.1-3-4.6-3.2-5.9-3.4c-1.3-0.2-3-0.4-4.8-1.2
		c-1.8-0.8-0.2,1.5-0.2,1.5c2.2,3.3,6.9,8.1,6.9,8.1c3.2,3.8,8.7,4.5,12.7,1.9c3.9,3.6,8.3,7,13.1,10.2c1,0.6,2,1.3,3,1.9
		c-1.9,0.8-4.6-1.3-7.6-3.1c-3.7-2.2-5.2-2.1-6.5-2c-1.3,0.1-3,0.2-4.9-0.1c-1.9-0.3,0.1,1.5,0.1,1.5c2.9,2.7,8.5,6.4,8.5,6.4
		c4.1,3,9.7,2.4,13-1.2c5.3,3,11.2,5.7,17.7,8.1c-1.7,1.3-4.8-0.2-8.1-1.3c-4-1.3-5.5-0.9-6.8-0.5c-1.3,0.4-2.9,0.9-4.8,1
		c-1.9,0.1,0.5,1.5,0.5,1.5c3.4,2,9.7,4.4,9.7,4.4c4.6,2.1,9.9,0.2,12.4-4.1c5.6,2,11.7,3.7,18.2,5.2c-1.6,1.2-4.7,0.3-8-0.3
		c-4.2-0.7-5.6-0.1-6.8,0.5c-1.2,0.6-2.8,1.3-4.6,1.7C72.5,197,75,198,75,198c3.6,1.5,10.2,2.9,10.2,2.9c4.7,1.3,9.6-1.1,11.5-5.5
		c3.8,0.8,7.7,1.6,11.8,2.3c2.7,0.5,5.1,1,7.3,1.5c-1.4,1.4-4.7,0.7-8.1,0.4c-4.2-0.4-5.6,0.3-6.7,1c-1.2,0.7-2.7,1.5-4.5,2
		c-1.9,0.5,0.8,1.3,0.8,1.3c3.7,1.2,10.4,2.1,10.4,2.1c4.7,1,9.4-1.7,11.1-6.1c2.9,0.8,5.5,1.7,7.7,2.6c-5.8,3.1-9.2,6.4-12.1,9.2
		c-0.9,0.9-1.8,1.8-2.7,2.6c-0.5,0.4-0.5,1.2-0.1,1.6c0.2,0.3,0.5,0.4,0.9,0.4c0.3,0,0.5-0.1,0.7-0.3c0.9-0.8,1.9-1.7,2.8-2.6
		c3-2.9,6.6-6.4,13.2-9.6c6.6,3.2,10.2,6.7,13.2,9.6c1,0.9,1.9,1.8,2.8,2.6c0.2,0.2,0.5,0.3,0.7,0.3c0.3,0,0.6-0.1,0.9-0.4
		c0.4-0.5,0.4-1.2-0.1-1.6c-0.9-0.8-1.8-1.6-2.7-2.6c-2.9-2.8-6.3-6.1-12.1-9.2c2.3-0.9,4.8-1.8,7.8-2.6c1.7,4.4,6.3,7.1,11.1,6.1
		c0,0,6.7-0.9,10.4-2.1c0,0,2.6-0.8,0.8-1.3c-1.9-0.5-3.4-1.4-4.5-2c-1.2-0.6-2.5-1.4-6.7-1c-3.4,0.3-6.7,1-8.1-0.4
		c2.2-0.5,4.7-1.1,7.3-1.5c4.1-0.7,8-1.5,11.8-2.3c1.9,4.4,6.8,6.8,11.5,5.5c0,0,6.6-1.4,10.2-2.9c0,0,2.6-1,0.7-1.4
		c-1.9-0.4-3.4-1.1-4.6-1.7c-1.2-0.6-2.6-1.2-6.8-0.5c-3.3,0.6-6.4,1.5-8,0.3c6.5-1.5,12.6-3.3,18.2-5.2c2.5,4.3,7.8,6.1,12.4,4.1
		c0,0,6.3-2.4,9.7-4.4c0,0,2.4-1.4,0.4-1.5c-1.9-0.1-3.6-0.6-4.8-1c-1.3-0.4-2.7-0.8-6.8,0.5c-3.4,1.1-6.5,2.6-8.1,1.3
		c6.5-2.4,12.4-5.1,17.7-8.1c3.3,3.7,8.9,4.3,13,1.3c0,0,5.7-3.7,8.5-6.4c0,0,2-1.9,0.1-1.5c-1.9,0.3-3.6,0.2-4.9,0.1
		c-1.3-0.1-2.8-0.2-6.5,2c-3,1.8-5.7,3.9-7.6,3.1c1-0.6,2-1.2,3-1.9c4.8-3.2,9.2-6.6,13.1-10.2c4,2.6,9.5,1.9,12.7-1.9
		c0,0,4.7-4.9,6.9-8.1c0,0,1.6-2.3-0.2-1.5c-1.8,0.8-3.5,1-4.8,1.2c-1.3,0.2-2.8,0.4-5.9,3.4c-2.4,2.3-4.4,4.7-6.4,4.7
		c4.6-4.6,8.6-9.6,11.7-14.8c4.7,1.5,9.8-0.7,11.9-5.3c0,0,3.2-6,4.4-9.8c0,0,0.9-2.6-0.6-1.4c-1.5,1.2-3.1,1.9-4.3,2.5
		c-1.2,0.6-2.6,1.2-4.7,4.9c-1.7,3-3.1,6.1-5.1,6.4c3.3-6.1,5.7-12.4,6.9-19C250.2,128,254.5,123.6,254.5,118.2z"/>
	<path class="st0" d="M210.4,37.9c2.3,1.6,5.4,1,6.9-1.3c1.5-2.3,1-5.4-1.3-7c-2.3-1.6-5.4-1-6.9,1.3
		C207.6,33.2,208.2,36.3,210.4,37.9z"/>
	<path class="st0" d="M17.1,73.2c1.4,10.5-1.8,17.3-1.9,17.4c0,0.1,0,0.3,0.1,0.3c0.1,0.1,0.2,0.1,0.2,0c1.4-1.2,2.4-2.6,3.4-3.9
		c2.2-2.8,2.7-5.1,2.8-5.9c4.5,1.8,10.3,7.7,14.1,11.9c-4.2,7.3-6.5,15.3-6.5,23.6c0,36.5,44.8,66.2,99.9,66.2
		c55.1,0,99.9-29.7,99.9-66.2c0-8.2-2.3-16.1-6.5-23.4c3.7-4.2,9.6-10.2,14.2-12c0.1,0.7,0.6,3,2.8,5.9c1,1.3,1.9,2.7,3.4,3.9
		c0.1,0.1,0.2,0.1,0.2,0c0.1-0.1,0.2-0.3,0.1-0.3c0-0.1-3.3-6.9-1.9-17.4c0-0.1,0-0.2-0.1-0.2c-2-0.7-3.4-2.6-3.6-4.7
		c0-0.1-0.1-0.2-0.2-0.2c-7.9-0.9-13-4-15.1-5.5c0,0,0,0,0,0c-0.1-0.1-7.2-7.1-9.6-21c0-0.1-0.1-0.2-0.2-0.2
		c-2.8-0.1-5.3-1.9-6.5-4.5c0-0.1-0.2-0.2-0.3-0.1c-13.7,2.8-22.9-1.2-23-1.3c0,0,0,0,0,0c-2.9-1.7-11.4-7.3-18.1-19.4
		c-0.1-0.1-0.2-0.2-0.3-0.1c-3.2,1-6.8,0-9.1-2.4c-0.1-0.1-0.2-0.1-0.4,0c-11.5,7-21.4,7.8-25,7.8c0,0-0.1,0-0.2,0c0,0-0.2,0-0.6,0
		c-0.4,0-0.6,0-0.6,0c-0.1,0-0.1,0-0.2,0c-3.6,0-13.5-0.8-25-7.8c-0.1-0.1-0.3-0.1-0.4,0c-2.3,2.5-5.9,3.4-9.1,2.4
		c-0.1,0-0.3,0-0.3,0.1c-7.1,12.7-16.1,18.3-18.6,19.6C73.6,36.4,65,39.5,52.7,37c-0.1,0-0.2,0-0.3,0.1c-1.1,2.6-3.7,4.3-6.4,4.4
		c-0.1,0-0.2,0.1-0.2,0.2c-2,11.5-7.1,18.3-8.9,20.3c-1.2,1-6.6,5-15.9,6c-0.1,0-0.1,0.1-0.2,0.2c-0.2,2.1-1.7,4-3.6,4.7
		C17.1,73,17.1,73.1,17.1,73.2z M33.7,82.2c1.3,0.5,4.3,1.7,8.1,2.3c-1.4,1.7-2.7,3.4-3.9,5.2C36.4,86.1,34.6,83.4,33.7,82.2z
		 M72.6,168.6c4-1.4,8.2-2.6,12.5-3.6c9.6,7,21.3,12.3,34.5,15.2C102.2,179,86.1,174.9,72.6,168.6z M88.1,164.3
		c4.9-1.1,9.9-2,15-2.6c4.8,6.7,10.7,12.3,17.5,16.4C108.3,175.3,97.3,170.5,88.1,164.3z M128.3,179.3c-9-3.7-16.8-10-22.8-18
		c7.4-0.9,14.9-1.3,22.8-1.4V179.3z M130.1,179.3v-19.4c7.9,0,15.3,0.5,22.6,1.3C146.7,169.3,139,175.6,130.1,179.3z M155.5,161.6
		c5.1,0.7,10.1,1.6,14.9,2.6c-9.2,6.3-20.2,11.1-32.5,13.8C144.7,173.9,150.7,168.3,155.5,161.6z M138.9,180.2
		c13.2-3,24.9-8.2,34.5-15.2c4.3,1,8.5,2.3,12.5,3.6C172.4,174.9,156.3,179,138.9,180.2z M220.7,89.9c-1.2-1.8-2.6-3.6-4-5.4
		c3.9-0.6,7-1.8,8.3-2.3C224.1,83.4,222.2,86.2,220.7,89.9z M210.3,53.6c0.4,0.9,2,3.6,5.9,6.3c1.6,1.1,3.4,2.1,5.5,2.9
		c0.7,1.4,1.5,2.7,2.4,3.8c0,0,0,0,0,0c2.2,2.8,4.3,3.9,4.9,4.2c-2.8,4-9.8,8.3-14.8,10.9c-4.2-4.4-9.1-8.5-14.6-12.2
		C202.5,63.5,206.4,56.8,210.3,53.6z M166.6,30.8c0.8,0.8,3.6,3.2,9.2,4.7c2.4,0.6,5,1,7.7,1.1c1.5,1.5,3.1,2.8,4.7,3.8
		c3.9,2.7,6.9,3.2,7.9,3.3c-1.7,5.3-7.3,12.2-12.1,17.5c-7.2-3.1-15-5.6-23.3-7.5C161.6,45.5,163.4,36.1,166.6,30.8z M195.6,59.8
		c-0.4,1.2-1.1,3.4-1.6,6.3c-1.3-0.7-2.7-1.5-4.1-2.2C192.6,62.3,194.6,60.7,195.6,59.8z M160.4,56c7.8,1.7,15.1,4.1,21.8,6.9
		c-1.1,1.2-2.2,2.3-3.1,3.2c-2.1,0.6-4.2,1.1-6.3,1.7c-3.9-2.8-8.2-5.3-12.8-7.5C160.1,59,160.3,57.5,160.4,56z M155.2,60.7
		c0.9,2.8,2.2,5.8,3.8,8.6c0.1,0.1,0.2,0.2,0.3,0.1c0.1,0,0.2-0.1,0.2-0.3c0-0.1,0.1-2.6,0.3-6.4c3.5,1.7,6.8,3.6,9.9,5.7
		c-5.3,1.2-10.8,2.1-16.4,2.8c-3.9-4.8-8.3-9-13.4-12.4c1-0.8,1.9-1.7,2.8-2.5C147.1,57.6,151.3,59,155.2,60.7z M134.2,62.8
		C134.2,62.8,134.2,62.8,134.2,62.8c0.1,0,0.2,0,0.2,0c1.3-0.7,2.5-1.5,3.6-2.4c4.7,3,8.9,6.8,12.5,11.2c-6.6,0.7-13.3,1.1-20.5,1.1
		v-20c2.9,0,5.7,0.1,8.4,0.3c-2.3,5-4.2,8.7-4.5,9.3c0,0-0.1,0.1-0.1,0.1C133.9,62.6,134,62.7,134.2,62.8z M154.4,57.8
		c-3.1-1.3-6.4-2.4-9.8-3.3c0.3-0.3,0.6-0.6,0.8-0.9c2.8,0.3,5.5,0.7,8.2,1.1C153.8,55.7,154.1,56.7,154.4,57.8z M152.5,43.9
		c0,1.6,0.1,4.6,0.7,8.4c-2-0.3-3.9-0.6-5.9-0.8C149.9,48.2,151.6,45.4,152.5,43.9z M112.2,25.5c1.1,0.3,4.7,1,10.2-0.5
		c2.3-0.6,4.6-1.5,6.9-2.7c2.3,1.2,4.7,2.1,6.9,2.7c5.5,1.5,9.1,0.8,10.2,0.5c0.2,6.9-3.5,17.2-7,25.2c-3.4-0.2-6.8-0.4-10.3-0.4
		c-3.4,0-6.8,0.1-10.1,0.3C115.7,42.7,111.9,32.4,112.2,25.5z M124.7,62.4c0-0.1,0-0.1-0.1-0.1c-0.3-0.6-2.3-4.3-4.5-9.3
		c2.7-0.2,5.3-0.3,8.2-0.3v20c-6.8,0-13.9-0.4-20.5-1.1c3.7-4.4,7.9-8.1,12.9-11.2c1.2,0.9,2.4,1.7,3.7,2.5c0.1,0,0.1,0.1,0.2,0
		c0,0,0,0,0,0C124.6,62.7,124.8,62.6,124.7,62.4z M106.2,43.9c0.8,1.4,2.6,4.3,5.2,7.5c-2,0.2-4,0.5-5.9,0.8
		C106.1,48.5,106.2,45.5,106.2,43.9z M105,54.7c2.7-0.4,5.4-0.8,8.2-1.1c0.3,0.3,0.5,0.6,0.8,0.9c-3.3,1-6.6,2.1-9.7,3.3
		C104.6,56.7,104.8,55.7,105,54.7z M99.1,69.2c0,0.1,0.1,0.2,0.2,0.3c0.1,0,0.3,0,0.3-0.1c1.7-2.9,2.9-5.9,3.8-8.7
		c3.9-1.7,8.1-3.1,12.4-4.2c0.9,0.8,1.8,1.7,2.8,2.5c-5.1,3.4-9.6,7.6-13.5,12.5c-5.6-0.7-11.1-1.6-16.4-2.8
		c3.2-2.1,6.5-4.1,10.1-5.8C99.1,66.5,99.1,69.1,99.1,69.2z M98.6,60.2c-4.7,2.2-9,4.8-13,7.6c-2-0.5-3.9-1-5.8-1.5
		c-1-0.9-2.2-2.1-3.4-3.4c6.8-2.9,14.1-5.2,21.8-6.9C98.4,57.5,98.5,58.9,98.6,60.2z M70.6,40.6c1.6-1.1,3.2-2.4,4.6-4
		c2.8-0.1,5.4-0.5,7.8-1.1c5.5-1.5,8.3-3.9,9.1-4.7c3.2,5.3,5,14.7,5.9,22.8c-8.3,1.8-16.1,4.3-23.3,7.4
		c-4.8-5.2-10.4-11.9-12.1-17.2C63.6,43.8,66.7,43.3,70.6,40.6z M68.7,63.9c-1.4,0.7-2.7,1.4-4,2.1c-0.5-2.8-1.2-5-1.6-6.1
		C64.1,60.8,66,62.3,68.7,63.9z M64.5,81.7c0,0.1,0.1,0.2,0.2,0.1c0.1,0,0.2-0.1,0.2-0.2c0.9-4.8,0.7-9.4,0.2-13.2
		c1.7-1,3.4-1.9,5.2-2.8c2.1,0.8,4.3,1.5,6.6,2.1c1.8,0.6,3.6,1.2,5.6,1.6c0.3,0.1,0.5,0.1,0.7,0.2C75.8,75.3,69.8,82,65.5,89.4
		c0.9-0.1,1.8-0.2,2.8-0.2c4.4-7.1,10.4-13.5,17.8-18.9c5.6,1.3,11.4,2.3,17.4,3.1c-3.5,4.8-6.4,10.1-8.6,15.8h2.4
		c2.3-5.8,5.1-10.9,8.6-15.5c7.2,0.8,14.8,1.3,22.3,1.3v14.2h1.8V75c7.5,0,15-0.6,22.2-1.4c3.6,4.7,6.6,10.2,8.9,15.6h2.5
		c-2.2-5.7-5.2-11.1-8.7-15.9c6-0.8,11.8-1.8,17.4-3.1c7.4,5.4,13.4,11.9,17.8,19c0.8,0,1.7,0,2.7,0c-4.3-7.3-10.2-14-17.6-19.6
		c0.2-0.1,0.5-0.1,0.7-0.2c0,0,0,0.1,0.1,0.1h0c0,0,0.1,0,0.2,0c2.8-0.5,5.4-1.4,7.8-2.4c1.4-0.4,2.8-0.9,4.1-1.4
		c1.8,0.9,3.6,1.9,5.4,2.9c-0.5,3.8-0.7,8.3,0.2,13c0,0.1,0.1,0.2,0.2,0.2c0.1,0,0.2-0.1,0.2-0.2c0-0.1,1.7-4.6,4.3-10
		c5.1,3.4,9.7,7.1,13.5,11.2c-0.1,0-0.2,0.1-0.2,0.1c-5.2,2.4-10.8,4.5-16.7,6.3c2.3,0,4.8,0,7.3,0c3.7-1.3,7.3-2.8,10.7-4.3
		c0.3,0,0.6,0,0.9,0c2.2,2.5,4.1,5.1,5.8,7.8c-0.5,1.5-0.8,3.1-1,4.8c0,0.1,0,0.2,0.1,0.2c0.1,0,0.2,0,0.2-0.1c0,0,0.8-1.1,2.1-2.6
		c3.5,6.4,5.5,13.2,5.7,20.4h-20.4l-0.9,2.5h21.3c-0.3,11.1-4.9,21.4-12.8,30.4c-5.3-2.5-10.9-4.6-16.8-6.6l-0.8,2.2
		c5.6,1.8,11,3.9,16,6.2c-6.3,6.6-14.3,12.5-23.7,17.2l0.1-0.2c-4.1-1.5-8.4-2.7-12.9-3.9c5-3.9,9.4-8.4,13-13.1h-2.9
		c-3.6,4.3-8,8.7-12.9,12.4c-5.2-1.2-10.5-2.2-16-2.9c1.9-3,3.7-6.2,5.2-9.4h-2.7c-1.5,3.2-3.3,6.2-5.2,9.1
		c-7.8-1-15.9-1.6-24.2-1.6v-7.5h-1.8v7.5c-8.2,0-16.4,0.6-24.3,1.6c-1.9-2.9-3.7-5.9-5.2-9.1h-2.4c1.5,3.2,3.2,6.4,5.2,9.4
		c-5.5,0.8-10.9,1.8-16.1,3c-5-3.7-9.3-8.1-13-12.4h-2.9c3.6,4.7,8,9.2,13,13.1c-4.4,1.1-8.7,2.4-12.8,3.9l0.1,0.2
		c-9.5-4.8-17.6-10.6-23.9-17.3c2.9-1.3,5.9-2.6,9-3.8c-0.8-0.5-1.5-1-2.2-1.6c-2.9,1.1-5.8,2.3-8.5,3.6c-7.9-9-12.5-19.3-12.8-30.4
		h11.7c0-0.8,0.1-1.6,0.2-2.5H31.6c0.2-7.2,2.2-14.1,5.8-20.5c1.4,1.6,2.2,2.7,2.2,2.7c0,0.1,0.1,0.1,0.2,0.1c0.1,0,0.1-0.1,0.1-0.2
		c-0.2-1.8-0.6-3.5-1.1-5c1.6-2.6,3.5-5.1,5.7-7.6c0.4,0,0.7,0,1.1,0.1c4.6,2.1,9.5,4,14.6,5.7c1.4-0.5,2.8-0.8,4.3-1.1
		c-6.2-1.9-12-4.1-17.4-6.5c-0.2-0.1-0.4-0.2-0.6-0.3c3.9-4.1,8.5-7.8,13.7-11.2C62.8,77,64.5,81.6,64.5,81.7z M34.7,66.6L34.7,66.6
		c0.8-1.1,1.6-2.3,2.3-3.7c2.1-0.8,4-1.9,5.7-3c3.9-2.7,5.4-5.4,5.9-6.2c3.9,3.2,7.7,9.7,10.7,15.7c-5.6,3.7-10.6,7.7-14.7,12.2
		c-4.9-2.7-11.9-6.9-14.7-10.8C30.4,70.5,32.5,69.4,34.7,66.6z"/>
	<path class="st0" d="M47.2,119.5c0,12.7,5.4,26.3,21.4,26.3c9.3,0,15.1-5.7,18.8-13.8l-10.4-4c-2.3,3.9-4.9,6.6-8.4,6.6
		c-6.7,0-9.6-8.2-9.6-15.2c0-6.8,2.3-15.2,9.6-15.2c3.8,0,6,2.2,8.5,6.1l10.2-4.6c-2.5-6.4-9-12.6-18.7-12.6
		C52.8,93.2,47.2,107.9,47.2,119.5z"/>
	<rect x="95.7" y="93.9" class="st0" width="11.5" height="51.2"/>
	<path class="st0" d="M138.7,135.1c-4.5,0-8.4-3.4-10.6-8.3l-10.2,3.9c3.1,9.6,10.6,15.3,20.6,15.3c10.7,0,19.1-5.8,19.1-15.8
		c0-11.4-10.1-14.6-17.8-17.1c-4.6-1.5-8.4-2.7-8.4-5.2c0-2.6,2.1-4,5.9-4c4.6,0,6.8,2.4,8.3,5.6l10.1-3.4
		c-2-7.4-8.4-13.1-17.8-13.1c-11.4,0-17.9,6.7-17.9,14.6c0,10.8,9.1,13.7,16.8,16.2c5.1,1.6,9.4,2.9,9.4,6.3
		C146.2,133.5,143.2,135.1,138.7,135.1z"/>
	<path class="st0" d="M191.4,145.1l18.3-51.2h-12.2l-10.9,31.9c-0.4,1-0.5,1.6-0.5,1.8c-0.1-0.1-0.2-0.9-0.6-1.8l-10.9-31.9h-12.4
		l18.4,51.2H191.4z"/>
</g>
</svg>
